<svg viewBox="0 0 1920 921" fill="none" xmlns="http://www.w3.org/2000/svg">
<path id="first-wave" fill-rule="evenodd" clip-rule="evenodd" d="M1920 1.16114V0.532837H1912.63C1915.16 0.758632 1917.62 0.967792 1920 1.16114ZM0 74.6643C82.0374 84.4752 149.527 107.241 225.783 132.964L228.539 133.893C344.187 172.9 475.675 216.473 667.847 209.978C730.55 207.858 797.792 192.367 860.959 175.189C893.414 166.363 926.966 156.454 960.269 146.593L964.35 145.385C996.625 135.827 1028.82 126.294 1061.4 117.239C1202.81 77.9387 1326.58 55.8261 1425.85 77.5897C1537.83 102.14 1601.34 126.311 1661.09 149.047L1661.16 149.073C1666.37 151.058 1671.56 153.032 1676.75 154.994C1745.37 180.946 1812.31 203.939 1920 215.494V923H0V74.6643Z" fill="url(#paint0_linear)"/>
<defs>
<linearGradient id="paint0_linear" x1="948" y1="69.0316" x2="948" y2="923" gradientUnits="userSpaceOnUse">
<stop stop-color="#7DB1E4"/>
<stop offset="1" stop-color="#5E72AE"/>
</linearGradient>
</defs>
</svg>
