<svg width="24" height="24" viewBox="0 0 52 60" fill="none" xmlns="http://www.w3.org/2000/svg">
<path class="MoonToggleIcon" id="MoonToggleIcon" d="M28.8629 2.13742L28.0811 1.51389C24.0407 6.57987 21.8257 12.9741 21.8257 19.522C21.8257 35.1662 34.1871 47.9426 49.4521 47.9426C49.6875 47.9426 49.9254 47.9263 50.1226 47.9128C50.1686 47.9096 50.2124 47.9066 50.2534 47.904L50.2563 47.9038L50.7203 47.873C50.7457 47.8733 50.7937 47.8818 50.8491 47.9146C50.9066 47.9487 50.9462 47.9938 50.967 48.0356C51.0228 48.1485 51.0059 48.284 50.9311 48.3766L50.9269 48.3818C45.5448 55.1363 37.6127 59 29.1622 59C13.6622 59 1 46.0004 1 29.968C1 14.4058 12.8279 1.70779 27.8701 1.00275L27.8852 1.00204L27.9003 1.00087C27.9554 0.996615 27.983 1.00835 28.0044 1.02181C28.0317 1.03907 28.0774 1.07977 28.1202 1.16322C28.1732 1.27698 28.1562 1.41929 28.0795 1.51592L28.8629 2.13742ZM28.8629 2.13742C29.1799 1.73787 29.2408 1.18162 29.0176 0.721999L27.8232 0.00384206C12.2228 0.735057 0 13.8969 0 29.968C0 46.5248 13.0824 60 29.1622 60C37.9241 60 46.1415 55.992 51.709 49.005C52.0291 48.6087 52.0919 48.0551 51.8636 47.5929C51.6373 47.1352 51.1409 46.8538 50.6718 46.874L50.19 46.906C50.1395 46.9093 50.0891 46.9127 50.0388 46.9161C49.8436 46.9294 49.6497 46.9426 49.4521 46.9426C34.767 46.9426 22.8257 34.6419 22.8257 19.522C22.8257 13.197 24.966 7.0235 28.8629 2.13742Z" stroke="white" stroke-width="2"/>
</svg>
