<svg width="30" height="30" viewBox="0 0 30 30" fill="none" xmlns="http://www.w3.org/2000/svg">
<g id="theme-toggle">
<path id="Vector" d="M15.0135 7.59979C10.9506 7.59979 7.65735 10.8934 7.65735 14.9559C7.65735 19.0188 10.9509 22.312 15.0135 22.312C19.076 22.312 22.3699 19.0185 22.3699 14.9559C22.3699 10.8934 19.0763 7.59979 15.0135 7.59979ZM15.0135 21.0603C11.6477 21.0603 8.90939 18.322 8.90939 14.9562C8.90939 11.5904 11.6477 8.85214 15.0135 8.85214C18.3793 8.85214 21.1176 11.5904 21.1176 14.9562C21.1176 18.322 18.3793 21.0603 15.0135 21.0603Z" />
<path id="Vector_2" d="M15.0135 7.59979C10.9506 7.59979 7.65735 10.8934 7.65735 14.9559C7.65735 19.0188 10.9509 22.312 15.0135 22.312C19.076 22.312 22.3699 19.0185 22.3699 14.9559C22.3699 10.8934 19.0763 7.59979 15.0135 7.59979ZM15.0135 21.0603C11.6477 21.0603 15.0135 18.322 15.0135 14.9562C15.0135 11.5904 11.6477 8.85214 15.0135 8.85214C18.3793 8.85214 21.1176 11.5904 21.1176 14.9562C21.1176 18.322 18.3793 21.0603 15.0135 21.0603Z" />
<path id="Vector_3" d="M6.20939 15C6.20939 14.6532 5.92837 14.3721 5.58153 14.3721H0.627857C0.28102 14.3721 0 14.6532 0 15C0 15.3468 0.28102 15.6278 0.627857 15.6278H5.58153C5.92837 15.6282 6.20939 15.3468 6.20939 15Z"/>
<path id="Vector_4" d="M29.3722 14.3721H24.4185C24.0717 14.3721 23.7906 14.6535 23.7906 15C23.7906 15.3468 24.0717 15.6278 24.4185 15.6278H29.3722C29.719 15.6282 30 15.3468 30 15C30 14.6532 29.719 14.3721 29.3722 14.3721Z"/>
<path id="Vector_5" d="M14.9999 23.7906C14.6531 23.7906 14.3721 24.0716 14.3721 24.4188V29.3725C14.3721 29.719 14.6531 30 14.9999 30C15.3468 30 15.6278 29.719 15.6278 29.3721V24.4185C15.6281 24.0716 15.3468 23.7906 14.9999 23.7906Z"/>
<path id="Vector_6" d="M14.9999 6.20939C15.3468 6.20939 15.6278 5.92837 15.6278 5.58153V0.627857C15.6281 0.28102 15.3468 0 14.9999 0C14.6531 0 14.3721 0.28102 14.3721 0.628163V5.58184C14.3721 5.92837 14.6531 6.20939 14.9999 6.20939Z"/>
<path id="Vector_7" d="M7.89615 21.2158L4.3935 24.7185C4.14829 24.9637 4.14829 25.3613 4.3935 25.6065C4.6387 25.8517 5.03635 25.8517 5.28156 25.6065L8.78421 22.1039C9.02942 21.8587 9.02942 21.461 8.78421 21.2158C8.53901 20.9706 8.14136 20.9706 7.89615 21.2158Z"/>
<path id="Vector_8" d="M22.1039 8.78418L25.6066 5.28153C25.8518 5.03632 25.8518 4.63867 25.6066 4.39347C25.3614 4.14826 24.9637 4.14826 24.7185 4.39347L21.2159 7.89612C20.9707 8.14132 20.9707 8.53898 21.2159 8.78418C21.4611 9.02939 21.8587 9.02939 22.1039 8.78418Z"/>
<path id="Vector_9" d="M22.1039 21.2158C21.8587 20.9706 21.4611 20.9706 21.2159 21.2158C20.9707 21.461 20.9707 21.8587 21.2159 22.1039L24.7185 25.6065C24.9637 25.8517 25.3614 25.8517 25.6066 25.6065C25.8518 25.3613 25.8518 24.9637 25.6066 24.7185L22.1039 21.2158Z"/>
<path id="Vector_10" d="M7.89615 8.78418C8.14136 9.02939 8.53901 9.02939 8.78421 8.78418C9.02942 8.53898 9.02942 8.14132 8.78421 7.89612L5.28156 4.39347C5.03635 4.14826 4.6387 4.14826 4.3935 4.39347C4.14829 4.63867 4.14829 5.03632 4.3935 5.28153L7.89615 8.78418Z"/>
</g>
</svg>
