<svg width="3913" height="797" viewBox="0 0 3913 797" fill="none" xmlns="http://www.w3.org/2000/svg">
<path id="waveThree" fill-rule="evenodd" clip-rule="evenodd" d="M0 0.143555C146.738 0.143555 226.221 39.8846 287.362 70.4549L287.365 70.4563C348.504 101.026 391.301 122.425 489.125 122.425C577.435 122.425 620.901 102.495 673.5 78.3771C679.168 75.7784 684.941 73.1311 690.888 70.4549C752.029 39.8846 831.512 0.143555 978.25 0.143555C1124.99 0.143555 1204.47 39.8846 1265.61 70.4549L1265.61 70.4563C1326.75 101.026 1369.55 122.425 1467.38 122.425C1555.68 122.425 1599.15 102.495 1651.75 78.377C1657.42 75.7784 1663.19 73.1311 1669.14 70.4549C1730.28 39.8846 1809.76 0.143555 1956.5 0.143555C2103.24 0.143555 2182.72 39.8846 2243.86 70.4549L2243.86 70.4563C2305 101.026 2347.8 122.425 2445.62 122.425C2533.93 122.425 2577.4 102.495 2630 78.3772C2635.67 75.7785 2641.44 73.1311 2647.39 70.4549C2708.53 39.8846 2788.01 0.143555 2934.75 0.143555C3081.49 0.143555 3160.97 39.8846 3222.11 70.4549L3222.11 70.4563C3283.25 101.026 3326.05 122.425 3423.88 122.425C3512.18 122.425 3555.65 102.495 3608.25 78.377C3613.92 75.7784 3619.69 73.1311 3625.64 70.4549C3686.78 39.8846 3766.26 0.143555 3913 0.143555V796.5H1956.5H0V0.143555Z" fill="#AED5F5"/>
</svg>
