<svg width="3913" height="823" viewBox="0 0 3913 823" fill="none" xmlns="http://www.w3.org/2000/svg">
<path id="waveTwo" d="M229.889 114.103C180.977 64.7524 117.39 0.597168 0 0.597168V822.5H3913V0.597168C3795.61 0.597168 3732.02 64.7524 3683.11 114.103C3634.2 158.519 3599.96 198 3521.7 198C3443.44 198 3409.2 163.455 3360.29 114.106L3360.29 114.103C3311.38 64.7524 3247.79 0.597168 3130.4 0.597168C3013.01 0.597168 2949.42 64.7524 2900.51 114.103C2851.6 158.519 2817.36 198 2739.1 198C2660.84 198 2626.6 163.455 2577.69 114.106L2577.69 114.103C2528.78 64.7524 2465.19 0.597168 2347.8 0.597168C2230.41 0.597168 2166.82 64.7524 2117.91 114.103C2069 158.519 2034.76 198 1956.5 198C1878.24 198 1844 163.455 1795.09 114.105L1795.09 114.103C1746.18 64.7524 1682.59 0.597168 1565.2 0.597168C1447.81 0.597168 1384.22 64.7524 1335.31 114.103C1286.4 158.519 1252.16 198 1173.9 198C1095.64 198 1061.4 163.455 1012.49 114.106L1012.49 114.103C963.577 64.7524 899.99 0.597168 782.6 0.597168C665.21 0.597168 601.623 64.7524 552.711 114.103C503.798 158.519 469.56 198 391.3 198C313.041 198 278.803 163.455 229.892 114.105L229.889 114.103Z" fill="#7CA7D9"/>
</svg>
